<?xml version="1.0" encoding="UTF-8" standalone="no"?>
<!DOCTYPE svg PUBLIC "-//W3C//DTD SVG 1.1//EN"
 "http://www.w3.org/Graphics/SVG/1.1/DTD/svg11.dtd">
<!-- Generated by graphviz version 2.43.0 (0)
 -->
<!-- Title: %3 Pages: 1 -->
<svg width="3554pt" height="238pt"
 viewBox="0.00 0.00 3553.50 237.74" xmlns="http://www.w3.org/2000/svg" xmlns:xlink="http://www.w3.org/1999/xlink">
<g id="graph0" class="graph" transform="scale(1 1) rotate(0) translate(36 201.74)">
<title>%3</title>
<polygon fill="dimgray" stroke="transparent" points="-36,36 -36,-201.74 3517.5,-201.74 3517.5,36 -36,36"/>
<text text-anchor="middle" x="1740.75" y="-150.54" font-family="Helvetica,sans-Serif" font-size="14.00">Sweep&#39;s Plan &amp; Progress</text>
<!-- start -->
<g id="node1" class="node">
<title>start</title>
</g>
<!-- 00fa0653&#45;890e&#45;4bf4&#45;8383&#45;8778c1d96342 -->
<g id="node3" class="node">
<title>00fa0653&#45;890e&#45;4bf4&#45;8383&#45;8778c1d96342</title>
<ellipse fill="#0ee832" stroke="black" cx="252" cy="-99.87" rx="166.75" ry="26.74"/>
<text text-anchor="middle" x="252" y="-103.67" font-family="Helvetica,sans-Serif" font-size="14.00">✓ Modify</text>
<text text-anchor="middle" x="252" y="-88.67" font-family="Helvetica,sans-Serif" font-size="14.00">MLBPredictor/Model/Player.swift</text>
</g>
<!-- start&#45;&gt;00fa0653&#45;890e&#45;4bf4&#45;8383&#45;8778c1d96342 -->
<g id="edge14" class="edge">
<title>start&#45;&gt;00fa0653&#45;890e&#45;4bf4&#45;8383&#45;8778c1d96342</title>
<path fill="none" stroke="black" d="M33.63,-99.87C36.93,-99.87 52.95,-99.87 74.93,-99.87"/>
<polygon fill="black" stroke="black" points="75.06,-103.37 85.06,-99.87 75.06,-96.37 75.06,-103.37"/>
<text text-anchor="middle" x="59.31" y="-106.67" font-family="Helvetica,sans-Serif" font-size="14.00">Start</text>
</g>
<!-- end -->
<g id="node2" class="node">
<title>end</title>
</g>
<!-- c4bd3ff2&#45;a8f0&#45;49fb&#45;b0c0&#45;5f10100f49df -->
<g id="node4" class="node">
<title>c4bd3ff2&#45;a8f0&#45;49fb&#45;b0c0&#45;5f10100f49df</title>
<ellipse fill="#0ee832" stroke="black" cx="664" cy="-99.87" rx="170.33" ry="26.74"/>
<text text-anchor="middle" x="664" y="-103.67" font-family="Helvetica,sans-Serif" font-size="14.00">✓ Modify</text>
<text text-anchor="middle" x="664" y="-88.67" font-family="Helvetica,sans-Serif" font-size="14.00">MLBPredictor/Model/Pitcher.swift</text>
</g>
<!-- 00fa0653&#45;890e&#45;4bf4&#45;8383&#45;8778c1d96342&#45;&gt;c4bd3ff2&#45;a8f0&#45;49fb&#45;b0c0&#45;5f10100f49df -->
<g id="edge2" class="edge">
<title>00fa0653&#45;890e&#45;4bf4&#45;8383&#45;8778c1d96342&#45;&gt;c4bd3ff2&#45;a8f0&#45;49fb&#45;b0c0&#45;5f10100f49df</title>
<path fill="none" stroke="black" d="M418.97,-99.87C440.32,-99.87 461.66,-99.87 483.01,-99.87"/>
<polygon fill="black" stroke="black" points="483.15,-103.37 493.15,-99.87 483.15,-96.37 483.15,-103.37"/>
</g>
<!-- c627a436&#45;58e8&#45;44b2&#45;ab12&#45;1398d32182cc -->
<g id="node10" class="node">
<title>c627a436&#45;58e8&#45;44b2&#45;ab12&#45;1398d32182cc</title>
<polygon fill="#0ee832" stroke="black" points="428,-36 0,-36 0,0 428,0 428,-36"/>
<text text-anchor="middle" x="214" y="-14.3" font-family="Helvetica,sans-Serif" font-size="14.00">✓ Run GitHub Actions for `MLBPredictor/Model/Player.swift`</text>
</g>
<!-- 00fa0653&#45;890e&#45;4bf4&#45;8383&#45;8778c1d96342&#45;&gt;c627a436&#45;58e8&#45;44b2&#45;ab12&#45;1398d32182cc -->
<g id="edge1" class="edge">
<title>00fa0653&#45;890e&#45;4bf4&#45;8383&#45;8778c1d96342&#45;&gt;c627a436&#45;58e8&#45;44b2&#45;ab12&#45;1398d32182cc</title>
<path fill="none" stroke="black" stroke-dasharray="5,2" d="M239.56,-72.72C235.36,-63.9 230.68,-54.05 226.48,-45.23"/>
<polygon fill="black" stroke="black" points="229.61,-43.67 222.16,-36.15 223.29,-46.68 229.61,-43.67"/>
</g>
<!-- f32c3c4d&#45;8a18&#45;4a86&#45;8491&#45;3ba5efb6d3b1 -->
<g id="node5" class="node">
<title>f32c3c4d&#45;8a18&#45;4a86&#45;8491&#45;3ba5efb6d3b1</title>
<ellipse fill="white" stroke="black" cx="1112" cy="-99.87" rx="164.1" ry="26.74"/>
<text text-anchor="middle" x="1112" y="-103.67" font-family="Helvetica,sans-Serif" font-size="14.00">▶ Modify</text>
<text text-anchor="middle" x="1112" y="-88.67" font-family="Helvetica,sans-Serif" font-size="14.00">MLBPredictor/Model/Hitter.swift</text>
</g>
<!-- c4bd3ff2&#45;a8f0&#45;49fb&#45;b0c0&#45;5f10100f49df&#45;&gt;f32c3c4d&#45;8a18&#45;4a86&#45;8491&#45;3ba5efb6d3b1 -->
<g id="edge4" class="edge">
<title>c4bd3ff2&#45;a8f0&#45;49fb&#45;b0c0&#45;5f10100f49df&#45;&gt;f32c3c4d&#45;8a18&#45;4a86&#45;8491&#45;3ba5efb6d3b1</title>
<path fill="none" stroke="black" d="M834.62,-99.87C868.98,-99.87 903.33,-99.87 937.68,-99.87"/>
<polygon fill="black" stroke="black" points="937.85,-103.37 947.85,-99.87 937.85,-96.37 937.85,-103.37"/>
</g>
<!-- 7b30c9b9&#45;55d7&#45;457e&#45;9570&#45;a3066dadfd34 -->
<g id="node11" class="node">
<title>7b30c9b9&#45;55d7&#45;457e&#45;9570&#45;a3066dadfd34</title>
<polygon fill="yellow" stroke="black" points="882,-36 446,-36 446,0 882,0 882,-36"/>
<text text-anchor="middle" x="664" y="-14.3" font-family="Helvetica,sans-Serif" font-size="14.00">⋯ Run GitHub Actions for `MLBPredictor/Model/Pitcher.swift`</text>
</g>
<!-- c4bd3ff2&#45;a8f0&#45;49fb&#45;b0c0&#45;5f10100f49df&#45;&gt;7b30c9b9&#45;55d7&#45;457e&#45;9570&#45;a3066dadfd34 -->
<g id="edge3" class="edge">
<title>c4bd3ff2&#45;a8f0&#45;49fb&#45;b0c0&#45;5f10100f49df&#45;&gt;7b30c9b9&#45;55d7&#45;457e&#45;9570&#45;a3066dadfd34</title>
<path fill="none" stroke="black" stroke-dasharray="5,2" d="M664,-72.72C664,-64.27 664,-54.89 664,-46.36"/>
<polygon fill="black" stroke="black" points="667.5,-46.15 664,-36.15 660.5,-46.15 667.5,-46.15"/>
</g>
<!-- 9fccfd8a&#45;fc8d&#45;4fb4&#45;b8f7&#45;79c68c44c82e -->
<g id="node6" class="node">
<title>9fccfd8a&#45;fc8d&#45;4fb4&#45;b8f7&#45;79c68c44c82e</title>
<ellipse fill="white" stroke="black" cx="1583" cy="-99.87" rx="205.12" ry="26.74"/>
<text text-anchor="middle" x="1583" y="-103.67" font-family="Helvetica,sans-Serif" font-size="14.00">▶ Modify</text>
<text text-anchor="middle" x="1583" y="-88.67" font-family="Helvetica,sans-Serif" font-size="14.00">MLBPredictor/Model/VideoAnalysis.swift</text>
</g>
<!-- f32c3c4d&#45;8a18&#45;4a86&#45;8491&#45;3ba5efb6d3b1&#45;&gt;9fccfd8a&#45;fc8d&#45;4fb4&#45;b8f7&#45;79c68c44c82e -->
<g id="edge6" class="edge">
<title>f32c3c4d&#45;8a18&#45;4a86&#45;8491&#45;3ba5efb6d3b1&#45;&gt;9fccfd8a&#45;fc8d&#45;4fb4&#45;b8f7&#45;79c68c44c82e</title>
<path fill="none" stroke="black" d="M1276.21,-99.87C1306.62,-99.87 1337.04,-99.87 1367.46,-99.87"/>
<polygon fill="black" stroke="black" points="1367.77,-103.37 1377.77,-99.87 1367.77,-96.37 1367.77,-103.37"/>
</g>
<!-- ba4ce9ab&#45;c572&#45;4535&#45;9bf0&#45;8a8885ceb703 -->
<g id="node12" class="node">
<title>ba4ce9ab&#45;c572&#45;4535&#45;9bf0&#45;8a8885ceb703</title>
<polygon fill="white" stroke="black" points="1323.5,-36 900.5,-36 900.5,0 1323.5,0 1323.5,-36"/>
<text text-anchor="middle" x="1112" y="-14.3" font-family="Helvetica,sans-Serif" font-size="14.00">▶ Run GitHub Actions for `MLBPredictor/Model/Hitter.swift`</text>
</g>
<!-- f32c3c4d&#45;8a18&#45;4a86&#45;8491&#45;3ba5efb6d3b1&#45;&gt;ba4ce9ab&#45;c572&#45;4535&#45;9bf0&#45;8a8885ceb703 -->
<g id="edge5" class="edge">
<title>f32c3c4d&#45;8a18&#45;4a86&#45;8491&#45;3ba5efb6d3b1&#45;&gt;ba4ce9ab&#45;c572&#45;4535&#45;9bf0&#45;8a8885ceb703</title>
<path fill="none" stroke="black" stroke-dasharray="5,2" d="M1112,-72.72C1112,-64.27 1112,-54.89 1112,-46.36"/>
<polygon fill="black" stroke="black" points="1115.5,-46.15 1112,-36.15 1108.5,-46.15 1115.5,-46.15"/>
</g>
<!-- c85ac517&#45;290e&#45;453d&#45;a5dc&#45;df57e8f410fb -->
<g id="node7" class="node">
<title>c85ac517&#45;290e&#45;453d&#45;a5dc&#45;df57e8f410fb</title>
<ellipse fill="white" stroke="black" cx="2083" cy="-99.87" rx="205.12" ry="26.74"/>
<text text-anchor="middle" x="2083" y="-103.67" font-family="Helvetica,sans-Serif" font-size="14.00">▶ Modify</text>
<text text-anchor="middle" x="2083" y="-88.67" font-family="Helvetica,sans-Serif" font-size="14.00">MLBPredictor/Model/Biomechanics.swift</text>
</g>
<!-- 9fccfd8a&#45;fc8d&#45;4fb4&#45;b8f7&#45;79c68c44c82e&#45;&gt;c85ac517&#45;290e&#45;453d&#45;a5dc&#45;df57e8f410fb -->
<g id="edge8" class="edge">
<title>9fccfd8a&#45;fc8d&#45;4fb4&#45;b8f7&#45;79c68c44c82e&#45;&gt;c85ac517&#45;290e&#45;453d&#45;a5dc&#45;df57e8f410fb</title>
<path fill="none" stroke="black" d="M1788.08,-99.87C1814.64,-99.87 1841.2,-99.87 1867.76,-99.87"/>
<polygon fill="black" stroke="black" points="1867.94,-103.37 1877.94,-99.87 1867.94,-96.37 1867.94,-103.37"/>
</g>
<!-- 4b06c60d&#45;9d85&#45;4812&#45;99bb&#45;8b95afe6647c -->
<g id="node13" class="node">
<title>4b06c60d&#45;9d85&#45;4812&#45;99bb&#45;8b95afe6647c</title>
<polygon fill="white" stroke="black" points="1824,-36 1342,-36 1342,0 1824,0 1824,-36"/>
<text text-anchor="middle" x="1583" y="-14.3" font-family="Helvetica,sans-Serif" font-size="14.00">▶ Run GitHub Actions for `MLBPredictor/Model/VideoAnalysis.swift`</text>
</g>
<!-- 9fccfd8a&#45;fc8d&#45;4fb4&#45;b8f7&#45;79c68c44c82e&#45;&gt;4b06c60d&#45;9d85&#45;4812&#45;99bb&#45;8b95afe6647c -->
<g id="edge7" class="edge">
<title>9fccfd8a&#45;fc8d&#45;4fb4&#45;b8f7&#45;79c68c44c82e&#45;&gt;4b06c60d&#45;9d85&#45;4812&#45;99bb&#45;8b95afe6647c</title>
<path fill="none" stroke="black" stroke-dasharray="5,2" d="M1583,-72.72C1583,-64.27 1583,-54.89 1583,-46.36"/>
<polygon fill="black" stroke="black" points="1586.5,-46.15 1583,-36.15 1579.5,-46.15 1586.5,-46.15"/>
</g>
<!-- 51ec90cc&#45;ef62&#45;4eb0&#45;8185&#45;9ec9deef1ddf -->
<g id="node8" class="node">
<title>51ec90cc&#45;ef62&#45;4eb0&#45;8185&#45;9ec9deef1ddf</title>
<ellipse fill="white" stroke="black" cx="2613" cy="-99.87" rx="247.47" ry="26.74"/>
<text text-anchor="middle" x="2613" y="-103.67" font-family="Helvetica,sans-Serif" font-size="14.00">▶ Modify</text>
<text text-anchor="middle" x="2613" y="-88.67" font-family="Helvetica,sans-Serif" font-size="14.00">MLBPredictor/SupportingFiles/AppDelegate.swift</text>
</g>
<!-- c85ac517&#45;290e&#45;453d&#45;a5dc&#45;df57e8f410fb&#45;&gt;51ec90cc&#45;ef62&#45;4eb0&#45;8185&#45;9ec9deef1ddf -->
<g id="edge10" class="edge">
<title>c85ac517&#45;290e&#45;453d&#45;a5dc&#45;df57e8f410fb&#45;&gt;51ec90cc&#45;ef62&#45;4eb0&#45;8185&#45;9ec9deef1ddf</title>
<path fill="none" stroke="black" d="M2288.22,-99.87C2310.5,-99.87 2332.78,-99.87 2355.06,-99.87"/>
<polygon fill="black" stroke="black" points="2355.29,-103.37 2365.29,-99.87 2355.29,-96.37 2355.29,-103.37"/>
</g>
<!-- 1f0555d9&#45;bbb4&#45;40e0&#45;aea5&#45;d15c21004f0b -->
<g id="node14" class="node">
<title>1f0555d9&#45;bbb4&#45;40e0&#45;aea5&#45;d15c21004f0b</title>
<polygon fill="white" stroke="black" points="2324,-36 1842,-36 1842,0 2324,0 2324,-36"/>
<text text-anchor="middle" x="2083" y="-14.3" font-family="Helvetica,sans-Serif" font-size="14.00">▶ Run GitHub Actions for `MLBPredictor/Model/Biomechanics.swift`</text>
</g>
<!-- c85ac517&#45;290e&#45;453d&#45;a5dc&#45;df57e8f410fb&#45;&gt;1f0555d9&#45;bbb4&#45;40e0&#45;aea5&#45;d15c21004f0b -->
<g id="edge9" class="edge">
<title>c85ac517&#45;290e&#45;453d&#45;a5dc&#45;df57e8f410fb&#45;&gt;1f0555d9&#45;bbb4&#45;40e0&#45;aea5&#45;d15c21004f0b</title>
<path fill="none" stroke="black" stroke-dasharray="5,2" d="M2083,-72.72C2083,-64.27 2083,-54.89 2083,-46.36"/>
<polygon fill="black" stroke="black" points="2086.5,-46.15 2083,-36.15 2079.5,-46.15 2086.5,-46.15"/>
</g>
<!-- 41b5e623&#45;517f&#45;48a4&#45;a915&#45;1aae415a697d -->
<g id="node9" class="node">
<title>41b5e623&#45;517f&#45;48a4&#45;a915&#45;1aae415a697d</title>
<ellipse fill="white" stroke="black" cx="3166" cy="-99.87" rx="257.27" ry="26.74"/>
<text text-anchor="middle" x="3166" y="-103.67" font-family="Helvetica,sans-Serif" font-size="14.00">▶ Modify</text>
<text text-anchor="middle" x="3166" y="-88.67" font-family="Helvetica,sans-Serif" font-size="14.00">MLBPredictor/SupportingFiles/SceneDelegate.swift</text>
</g>
<!-- 51ec90cc&#45;ef62&#45;4eb0&#45;8185&#45;9ec9deef1ddf&#45;&gt;41b5e623&#45;517f&#45;48a4&#45;a915&#45;1aae415a697d -->
<g id="edge12" class="edge">
<title>51ec90cc&#45;ef62&#45;4eb0&#45;8185&#45;9ec9deef1ddf&#45;&gt;41b5e623&#45;517f&#45;48a4&#45;a915&#45;1aae415a697d</title>
<path fill="none" stroke="black" d="M2860.61,-99.87C2873.16,-99.87 2885.71,-99.87 2898.26,-99.87"/>
<polygon fill="black" stroke="black" points="2898.33,-103.37 2908.33,-99.87 2898.33,-96.37 2898.33,-103.37"/>
</g>
<!-- ab2ef686&#45;df89&#45;468e&#45;8691&#45;2ee78950cc92 -->
<g id="node15" class="node">
<title>ab2ef686&#45;df89&#45;468e&#45;8691&#45;2ee78950cc92</title>
<polygon fill="white" stroke="black" points="2883.5,-36 2342.5,-36 2342.5,0 2883.5,0 2883.5,-36"/>
<text text-anchor="middle" x="2613" y="-14.3" font-family="Helvetica,sans-Serif" font-size="14.00">▶ Run GitHub Actions for `MLBPredictor/SupportingFiles/AppDelegate.swift`</text>
</g>
<!-- 51ec90cc&#45;ef62&#45;4eb0&#45;8185&#45;9ec9deef1ddf&#45;&gt;ab2ef686&#45;df89&#45;468e&#45;8691&#45;2ee78950cc92 -->
<g id="edge11" class="edge">
<title>51ec90cc&#45;ef62&#45;4eb0&#45;8185&#45;9ec9deef1ddf&#45;&gt;ab2ef686&#45;df89&#45;468e&#45;8691&#45;2ee78950cc92</title>
<path fill="none" stroke="black" stroke-dasharray="5,2" d="M2613,-72.72C2613,-64.27 2613,-54.89 2613,-46.36"/>
<polygon fill="black" stroke="black" points="2616.5,-46.15 2613,-36.15 2609.5,-46.15 2616.5,-46.15"/>
</g>
<!-- 41b5e623&#45;517f&#45;48a4&#45;a915&#45;1aae415a697d&#45;&gt;end -->
<g id="edge15" class="edge">
<title>41b5e623&#45;517f&#45;48a4&#45;a915&#45;1aae415a697d&#45;&gt;end</title>
<path fill="none" stroke="black" d="M3423.59,-99.87C3443.83,-99.87 3460.3,-99.87 3470.33,-99.87"/>
<polygon fill="black" stroke="black" points="3470.39,-103.37 3480.39,-99.87 3470.39,-96.37 3470.39,-103.37"/>
<text text-anchor="middle" x="3451.94" y="-106.67" font-family="Helvetica,sans-Serif" font-size="14.00">Finish</text>
</g>
<!-- 27948917&#45;0c27&#45;4d46&#45;9edd&#45;d7aabab09a14 -->
<g id="node16" class="node">
<title>27948917&#45;0c27&#45;4d46&#45;9edd&#45;d7aabab09a14</title>
<polygon fill="white" stroke="black" points="3456.5,-36 2901.5,-36 2901.5,0 3456.5,0 3456.5,-36"/>
<text text-anchor="middle" x="3179" y="-14.3" font-family="Helvetica,sans-Serif" font-size="14.00">▶ Run GitHub Actions for `MLBPredictor/SupportingFiles/SceneDelegate.swift`</text>
</g>
<!-- 41b5e623&#45;517f&#45;48a4&#45;a915&#45;1aae415a697d&#45;&gt;27948917&#45;0c27&#45;4d46&#45;9edd&#45;d7aabab09a14 -->
<g id="edge13" class="edge">
<title>41b5e623&#45;517f&#45;48a4&#45;a915&#45;1aae415a697d&#45;&gt;27948917&#45;0c27&#45;4d46&#45;9edd&#45;d7aabab09a14</title>
<path fill="none" stroke="black" stroke-dasharray="5,2" d="M3170.26,-72.72C3171.65,-64.18 3173.19,-54.68 3174.59,-46.08"/>
<polygon fill="black" stroke="black" points="3178.06,-46.58 3176.21,-36.15 3171.15,-45.45 3178.06,-46.58"/>
</g>
</g>
</svg>
