<?xml version="1.0" encoding="UTF-8" standalone="no"?>
<!DOCTYPE svg PUBLIC "-//W3C//DTD SVG 1.1//EN"
 "http://www.w3.org/Graphics/SVG/1.1/DTD/svg11.dtd">
<!-- Generated by graphviz version 2.43.0 (0)
 -->
<!-- Title: %3 Pages: 1 -->
<svg width="3550pt" height="238pt"
 viewBox="0.00 0.00 3549.50 237.74" xmlns="http://www.w3.org/2000/svg" xmlns:xlink="http://www.w3.org/1999/xlink">
<g id="graph0" class="graph" transform="scale(1 1) rotate(0) translate(36 201.74)">
<title>%3</title>
<polygon fill="dimgray" stroke="transparent" points="-36,36 -36,-201.74 3513.5,-201.74 3513.5,36 -36,36"/>
<text text-anchor="middle" x="1738.75" y="-150.54" font-family="Helvetica,sans-Serif" font-size="14.00">Sweep&#39;s Plan &amp; Progress</text>
<!-- start -->
<g id="node1" class="node">
<title>start</title>
</g>
<!-- 00fa0653&#45;890e&#45;4bf4&#45;8383&#45;8778c1d96342 -->
<g id="node3" class="node">
<title>00fa0653&#45;890e&#45;4bf4&#45;8383&#45;8778c1d96342</title>
<ellipse fill="#0ee832" stroke="black" cx="251" cy="-99.87" rx="166.75" ry="26.74"/>
<text text-anchor="middle" x="251" y="-103.67" font-family="Helvetica,sans-Serif" font-size="14.00">✓ Modify</text>
<text text-anchor="middle" x="251" y="-88.67" font-family="Helvetica,sans-Serif" font-size="14.00">MLBPredictor/Model/Player.swift</text>
</g>
<!-- start&#45;&gt;00fa0653&#45;890e&#45;4bf4&#45;8383&#45;8778c1d96342 -->
<g id="edge14" class="edge">
<title>start&#45;&gt;00fa0653&#45;890e&#45;4bf4&#45;8383&#45;8778c1d96342</title>
<path fill="none" stroke="black" d="M32.63,-99.87C35.93,-99.87 51.95,-99.87 73.93,-99.87"/>
<polygon fill="black" stroke="black" points="74.06,-103.37 84.06,-99.87 74.06,-96.37 74.06,-103.37"/>
<text text-anchor="middle" x="58.31" y="-106.67" font-family="Helvetica,sans-Serif" font-size="14.00">Start</text>
</g>
<!-- end -->
<g id="node2" class="node">
<title>end</title>
</g>
<!-- c4bd3ff2&#45;a8f0&#45;49fb&#45;b0c0&#45;5f10100f49df -->
<g id="node4" class="node">
<title>c4bd3ff2&#45;a8f0&#45;49fb&#45;b0c0&#45;5f10100f49df</title>
<ellipse fill="white" stroke="black" cx="662" cy="-99.87" rx="170.33" ry="26.74"/>
<text text-anchor="middle" x="662" y="-103.67" font-family="Helvetica,sans-Serif" font-size="14.00">▶ Modify</text>
<text text-anchor="middle" x="662" y="-88.67" font-family="Helvetica,sans-Serif" font-size="14.00">MLBPredictor/Model/Pitcher.swift</text>
</g>
<!-- 00fa0653&#45;890e&#45;4bf4&#45;8383&#45;8778c1d96342&#45;&gt;c4bd3ff2&#45;a8f0&#45;49fb&#45;b0c0&#45;5f10100f49df -->
<g id="edge2" class="edge">
<title>00fa0653&#45;890e&#45;4bf4&#45;8383&#45;8778c1d96342&#45;&gt;c4bd3ff2&#45;a8f0&#45;49fb&#45;b0c0&#45;5f10100f49df</title>
<path fill="none" stroke="black" d="M417.97,-99.87C439.09,-99.87 460.21,-99.87 481.33,-99.87"/>
<polygon fill="black" stroke="black" points="481.37,-103.37 491.37,-99.87 481.37,-96.37 481.37,-103.37"/>
</g>
<!-- c627a436&#45;58e8&#45;44b2&#45;ab12&#45;1398d32182cc -->
<g id="node10" class="node">
<title>c627a436&#45;58e8&#45;44b2&#45;ab12&#45;1398d32182cc</title>
<polygon fill="#0ee832" stroke="black" points="428,-36 0,-36 0,0 428,0 428,-36"/>
<text text-anchor="middle" x="214" y="-14.3" font-family="Helvetica,sans-Serif" font-size="14.00">✓ Run GitHub Actions for `MLBPredictor/Model/Player.swift`</text>
</g>
<!-- 00fa0653&#45;890e&#45;4bf4&#45;8383&#45;8778c1d96342&#45;&gt;c627a436&#45;58e8&#45;44b2&#45;ab12&#45;1398d32182cc -->
<g id="edge1" class="edge">
<title>00fa0653&#45;890e&#45;4bf4&#45;8383&#45;8778c1d96342&#45;&gt;c627a436&#45;58e8&#45;44b2&#45;ab12&#45;1398d32182cc</title>
<path fill="none" stroke="black" stroke-dasharray="5,2" d="M238.88,-72.72C234.8,-63.9 230.24,-54.05 226.15,-45.23"/>
<polygon fill="black" stroke="black" points="229.32,-43.75 221.94,-36.15 222.97,-46.69 229.32,-43.75"/>
</g>
<!-- f32c3c4d&#45;8a18&#45;4a86&#45;8491&#45;3ba5efb6d3b1 -->
<g id="node5" class="node">
<title>f32c3c4d&#45;8a18&#45;4a86&#45;8491&#45;3ba5efb6d3b1</title>
<ellipse fill="white" stroke="black" cx="1108" cy="-99.87" rx="164.1" ry="26.74"/>
<text text-anchor="middle" x="1108" y="-103.67" font-family="Helvetica,sans-Serif" font-size="14.00">▶ Modify</text>
<text text-anchor="middle" x="1108" y="-88.67" font-family="Helvetica,sans-Serif" font-size="14.00">MLBPredictor/Model/Hitter.swift</text>
</g>
<!-- c4bd3ff2&#45;a8f0&#45;49fb&#45;b0c0&#45;5f10100f49df&#45;&gt;f32c3c4d&#45;8a18&#45;4a86&#45;8491&#45;3ba5efb6d3b1 -->
<g id="edge4" class="edge">
<title>c4bd3ff2&#45;a8f0&#45;49fb&#45;b0c0&#45;5f10100f49df&#45;&gt;f32c3c4d&#45;8a18&#45;4a86&#45;8491&#45;3ba5efb6d3b1</title>
<path fill="none" stroke="black" d="M832.73,-99.87C866.27,-99.87 899.81,-99.87 933.35,-99.87"/>
<polygon fill="black" stroke="black" points="933.75,-103.37 943.75,-99.87 933.75,-96.37 933.75,-103.37"/>
</g>
<!-- 7b30c9b9&#45;55d7&#45;457e&#45;9570&#45;a3066dadfd34 -->
<g id="node11" class="node">
<title>7b30c9b9&#45;55d7&#45;457e&#45;9570&#45;a3066dadfd34</title>
<polygon fill="white" stroke="black" points="878,-36 446,-36 446,0 878,0 878,-36"/>
<text text-anchor="middle" x="662" y="-14.3" font-family="Helvetica,sans-Serif" font-size="14.00">▶ Run GitHub Actions for `MLBPredictor/Model/Pitcher.swift`</text>
</g>
<!-- c4bd3ff2&#45;a8f0&#45;49fb&#45;b0c0&#45;5f10100f49df&#45;&gt;7b30c9b9&#45;55d7&#45;457e&#45;9570&#45;a3066dadfd34 -->
<g id="edge3" class="edge">
<title>c4bd3ff2&#45;a8f0&#45;49fb&#45;b0c0&#45;5f10100f49df&#45;&gt;7b30c9b9&#45;55d7&#45;457e&#45;9570&#45;a3066dadfd34</title>
<path fill="none" stroke="black" stroke-dasharray="5,2" d="M662,-72.72C662,-64.27 662,-54.89 662,-46.36"/>
<polygon fill="black" stroke="black" points="665.5,-46.15 662,-36.15 658.5,-46.15 665.5,-46.15"/>
</g>
<!-- 9fccfd8a&#45;fc8d&#45;4fb4&#45;b8f7&#45;79c68c44c82e -->
<g id="node6" class="node">
<title>9fccfd8a&#45;fc8d&#45;4fb4&#45;b8f7&#45;79c68c44c82e</title>
<ellipse fill="white" stroke="black" cx="1579" cy="-99.87" rx="205.12" ry="26.74"/>
<text text-anchor="middle" x="1579" y="-103.67" font-family="Helvetica,sans-Serif" font-size="14.00">▶ Modify</text>
<text text-anchor="middle" x="1579" y="-88.67" font-family="Helvetica,sans-Serif" font-size="14.00">MLBPredictor/Model/VideoAnalysis.swift</text>
</g>
<!-- f32c3c4d&#45;8a18&#45;4a86&#45;8491&#45;3ba5efb6d3b1&#45;&gt;9fccfd8a&#45;fc8d&#45;4fb4&#45;b8f7&#45;79c68c44c82e -->
<g id="edge6" class="edge">
<title>f32c3c4d&#45;8a18&#45;4a86&#45;8491&#45;3ba5efb6d3b1&#45;&gt;9fccfd8a&#45;fc8d&#45;4fb4&#45;b8f7&#45;79c68c44c82e</title>
<path fill="none" stroke="black" d="M1272.21,-99.87C1302.62,-99.87 1333.04,-99.87 1363.46,-99.87"/>
<polygon fill="black" stroke="black" points="1363.77,-103.37 1373.77,-99.87 1363.77,-96.37 1363.77,-103.37"/>
</g>
<!-- ba4ce9ab&#45;c572&#45;4535&#45;9bf0&#45;8a8885ceb703 -->
<g id="node12" class="node">
<title>ba4ce9ab&#45;c572&#45;4535&#45;9bf0&#45;8a8885ceb703</title>
<polygon fill="white" stroke="black" points="1319.5,-36 896.5,-36 896.5,0 1319.5,0 1319.5,-36"/>
<text text-anchor="middle" x="1108" y="-14.3" font-family="Helvetica,sans-Serif" font-size="14.00">▶ Run GitHub Actions for `MLBPredictor/Model/Hitter.swift`</text>
</g>
<!-- f32c3c4d&#45;8a18&#45;4a86&#45;8491&#45;3ba5efb6d3b1&#45;&gt;ba4ce9ab&#45;c572&#45;4535&#45;9bf0&#45;8a8885ceb703 -->
<g id="edge5" class="edge">
<title>f32c3c4d&#45;8a18&#45;4a86&#45;8491&#45;3ba5efb6d3b1&#45;&gt;ba4ce9ab&#45;c572&#45;4535&#45;9bf0&#45;8a8885ceb703</title>
<path fill="none" stroke="black" stroke-dasharray="5,2" d="M1108,-72.72C1108,-64.27 1108,-54.89 1108,-46.36"/>
<polygon fill="black" stroke="black" points="1111.5,-46.15 1108,-36.15 1104.5,-46.15 1111.5,-46.15"/>
</g>
<!-- c85ac517&#45;290e&#45;453d&#45;a5dc&#45;df57e8f410fb -->
<g id="node7" class="node">
<title>c85ac517&#45;290e&#45;453d&#45;a5dc&#45;df57e8f410fb</title>
<ellipse fill="white" stroke="black" cx="2079" cy="-99.87" rx="205.12" ry="26.74"/>
<text text-anchor="middle" x="2079" y="-103.67" font-family="Helvetica,sans-Serif" font-size="14.00">▶ Modify</text>
<text text-anchor="middle" x="2079" y="-88.67" font-family="Helvetica,sans-Serif" font-size="14.00">MLBPredictor/Model/Biomechanics.swift</text>
</g>
<!-- 9fccfd8a&#45;fc8d&#45;4fb4&#45;b8f7&#45;79c68c44c82e&#45;&gt;c85ac517&#45;290e&#45;453d&#45;a5dc&#45;df57e8f410fb -->
<g id="edge8" class="edge">
<title>9fccfd8a&#45;fc8d&#45;4fb4&#45;b8f7&#45;79c68c44c82e&#45;&gt;c85ac517&#45;290e&#45;453d&#45;a5dc&#45;df57e8f410fb</title>
<path fill="none" stroke="black" d="M1784.08,-99.87C1810.64,-99.87 1837.2,-99.87 1863.76,-99.87"/>
<polygon fill="black" stroke="black" points="1863.94,-103.37 1873.94,-99.87 1863.94,-96.37 1863.94,-103.37"/>
</g>
<!-- 4b06c60d&#45;9d85&#45;4812&#45;99bb&#45;8b95afe6647c -->
<g id="node13" class="node">
<title>4b06c60d&#45;9d85&#45;4812&#45;99bb&#45;8b95afe6647c</title>
<polygon fill="white" stroke="black" points="1820,-36 1338,-36 1338,0 1820,0 1820,-36"/>
<text text-anchor="middle" x="1579" y="-14.3" font-family="Helvetica,sans-Serif" font-size="14.00">▶ Run GitHub Actions for `MLBPredictor/Model/VideoAnalysis.swift`</text>
</g>
<!-- 9fccfd8a&#45;fc8d&#45;4fb4&#45;b8f7&#45;79c68c44c82e&#45;&gt;4b06c60d&#45;9d85&#45;4812&#45;99bb&#45;8b95afe6647c -->
<g id="edge7" class="edge">
<title>9fccfd8a&#45;fc8d&#45;4fb4&#45;b8f7&#45;79c68c44c82e&#45;&gt;4b06c60d&#45;9d85&#45;4812&#45;99bb&#45;8b95afe6647c</title>
<path fill="none" stroke="black" stroke-dasharray="5,2" d="M1579,-72.72C1579,-64.27 1579,-54.89 1579,-46.36"/>
<polygon fill="black" stroke="black" points="1582.5,-46.15 1579,-36.15 1575.5,-46.15 1582.5,-46.15"/>
</g>
<!-- 51ec90cc&#45;ef62&#45;4eb0&#45;8185&#45;9ec9deef1ddf -->
<g id="node8" class="node">
<title>51ec90cc&#45;ef62&#45;4eb0&#45;8185&#45;9ec9deef1ddf</title>
<ellipse fill="white" stroke="black" cx="2609" cy="-99.87" rx="247.47" ry="26.74"/>
<text text-anchor="middle" x="2609" y="-103.67" font-family="Helvetica,sans-Serif" font-size="14.00">▶ Modify</text>
<text text-anchor="middle" x="2609" y="-88.67" font-family="Helvetica,sans-Serif" font-size="14.00">MLBPredictor/SupportingFiles/AppDelegate.swift</text>
</g>
<!-- c85ac517&#45;290e&#45;453d&#45;a5dc&#45;df57e8f410fb&#45;&gt;51ec90cc&#45;ef62&#45;4eb0&#45;8185&#45;9ec9deef1ddf -->
<g id="edge10" class="edge">
<title>c85ac517&#45;290e&#45;453d&#45;a5dc&#45;df57e8f410fb&#45;&gt;51ec90cc&#45;ef62&#45;4eb0&#45;8185&#45;9ec9deef1ddf</title>
<path fill="none" stroke="black" d="M2284.22,-99.87C2306.5,-99.87 2328.78,-99.87 2351.06,-99.87"/>
<polygon fill="black" stroke="black" points="2351.29,-103.37 2361.29,-99.87 2351.29,-96.37 2351.29,-103.37"/>
</g>
<!-- 1f0555d9&#45;bbb4&#45;40e0&#45;aea5&#45;d15c21004f0b -->
<g id="node14" class="node">
<title>1f0555d9&#45;bbb4&#45;40e0&#45;aea5&#45;d15c21004f0b</title>
<polygon fill="white" stroke="black" points="2320,-36 1838,-36 1838,0 2320,0 2320,-36"/>
<text text-anchor="middle" x="2079" y="-14.3" font-family="Helvetica,sans-Serif" font-size="14.00">▶ Run GitHub Actions for `MLBPredictor/Model/Biomechanics.swift`</text>
</g>
<!-- c85ac517&#45;290e&#45;453d&#45;a5dc&#45;df57e8f410fb&#45;&gt;1f0555d9&#45;bbb4&#45;40e0&#45;aea5&#45;d15c21004f0b -->
<g id="edge9" class="edge">
<title>c85ac517&#45;290e&#45;453d&#45;a5dc&#45;df57e8f410fb&#45;&gt;1f0555d9&#45;bbb4&#45;40e0&#45;aea5&#45;d15c21004f0b</title>
<path fill="none" stroke="black" stroke-dasharray="5,2" d="M2079,-72.72C2079,-64.27 2079,-54.89 2079,-46.36"/>
<polygon fill="black" stroke="black" points="2082.5,-46.15 2079,-36.15 2075.5,-46.15 2082.5,-46.15"/>
</g>
<!-- 41b5e623&#45;517f&#45;48a4&#45;a915&#45;1aae415a697d -->
<g id="node9" class="node">
<title>41b5e623&#45;517f&#45;48a4&#45;a915&#45;1aae415a697d</title>
<ellipse fill="white" stroke="black" cx="3162" cy="-99.87" rx="257.27" ry="26.74"/>
<text text-anchor="middle" x="3162" y="-103.67" font-family="Helvetica,sans-Serif" font-size="14.00">▶ Modify</text>
<text text-anchor="middle" x="3162" y="-88.67" font-family="Helvetica,sans-Serif" font-size="14.00">MLBPredictor/SupportingFiles/SceneDelegate.swift</text>
</g>
<!-- 51ec90cc&#45;ef62&#45;4eb0&#45;8185&#45;9ec9deef1ddf&#45;&gt;41b5e623&#45;517f&#45;48a4&#45;a915&#45;1aae415a697d -->
<g id="edge12" class="edge">
<title>51ec90cc&#45;ef62&#45;4eb0&#45;8185&#45;9ec9deef1ddf&#45;&gt;41b5e623&#45;517f&#45;48a4&#45;a915&#45;1aae415a697d</title>
<path fill="none" stroke="black" d="M2856.61,-99.87C2869.16,-99.87 2881.71,-99.87 2894.26,-99.87"/>
<polygon fill="black" stroke="black" points="2894.33,-103.37 2904.33,-99.87 2894.33,-96.37 2894.33,-103.37"/>
</g>
<!-- ab2ef686&#45;df89&#45;468e&#45;8691&#45;2ee78950cc92 -->
<g id="node15" class="node">
<title>ab2ef686&#45;df89&#45;468e&#45;8691&#45;2ee78950cc92</title>
<polygon fill="white" stroke="black" points="2879.5,-36 2338.5,-36 2338.5,0 2879.5,0 2879.5,-36"/>
<text text-anchor="middle" x="2609" y="-14.3" font-family="Helvetica,sans-Serif" font-size="14.00">▶ Run GitHub Actions for `MLBPredictor/SupportingFiles/AppDelegate.swift`</text>
</g>
<!-- 51ec90cc&#45;ef62&#45;4eb0&#45;8185&#45;9ec9deef1ddf&#45;&gt;ab2ef686&#45;df89&#45;468e&#45;8691&#45;2ee78950cc92 -->
<g id="edge11" class="edge">
<title>51ec90cc&#45;ef62&#45;4eb0&#45;8185&#45;9ec9deef1ddf&#45;&gt;ab2ef686&#45;df89&#45;468e&#45;8691&#45;2ee78950cc92</title>
<path fill="none" stroke="black" stroke-dasharray="5,2" d="M2609,-72.72C2609,-64.27 2609,-54.89 2609,-46.36"/>
<polygon fill="black" stroke="black" points="2612.5,-46.15 2609,-36.15 2605.5,-46.15 2612.5,-46.15"/>
</g>
<!-- 41b5e623&#45;517f&#45;48a4&#45;a915&#45;1aae415a697d&#45;&gt;end -->
<g id="edge15" class="edge">
<title>41b5e623&#45;517f&#45;48a4&#45;a915&#45;1aae415a697d&#45;&gt;end</title>
<path fill="none" stroke="black" d="M3419.59,-99.87C3439.83,-99.87 3456.3,-99.87 3466.33,-99.87"/>
<polygon fill="black" stroke="black" points="3466.39,-103.37 3476.39,-99.87 3466.39,-96.37 3466.39,-103.37"/>
<text text-anchor="middle" x="3447.94" y="-106.67" font-family="Helvetica,sans-Serif" font-size="14.00">Finish</text>
</g>
<!-- 27948917&#45;0c27&#45;4d46&#45;9edd&#45;d7aabab09a14 -->
<g id="node16" class="node">
<title>27948917&#45;0c27&#45;4d46&#45;9edd&#45;d7aabab09a14</title>
<polygon fill="white" stroke="black" points="3452.5,-36 2897.5,-36 2897.5,0 3452.5,0 3452.5,-36"/>
<text text-anchor="middle" x="3175" y="-14.3" font-family="Helvetica,sans-Serif" font-size="14.00">▶ Run GitHub Actions for `MLBPredictor/SupportingFiles/SceneDelegate.swift`</text>
</g>
<!-- 41b5e623&#45;517f&#45;48a4&#45;a915&#45;1aae415a697d&#45;&gt;27948917&#45;0c27&#45;4d46&#45;9edd&#45;d7aabab09a14 -->
<g id="edge13" class="edge">
<title>41b5e623&#45;517f&#45;48a4&#45;a915&#45;1aae415a697d&#45;&gt;27948917&#45;0c27&#45;4d46&#45;9edd&#45;d7aabab09a14</title>
<path fill="none" stroke="black" stroke-dasharray="5,2" d="M3166.26,-72.72C3167.65,-64.18 3169.19,-54.68 3170.59,-46.08"/>
<polygon fill="black" stroke="black" points="3174.06,-46.58 3172.21,-36.15 3167.15,-45.45 3174.06,-46.58"/>
</g>
</g>
</svg>
