<?xml version="1.0" encoding="UTF-8" standalone="no"?>
<!DOCTYPE svg PUBLIC "-//W3C//DTD SVG 1.1//EN"
 "http://www.w3.org/Graphics/SVG/1.1/DTD/svg11.dtd">
<!-- Generated by graphviz version 2.43.0 (0)
 -->
<!-- Title: %3 Pages: 1 -->
<svg width="3556pt" height="238pt"
 viewBox="0.00 0.00 3555.50 237.74" xmlns="http://www.w3.org/2000/svg" xmlns:xlink="http://www.w3.org/1999/xlink">
<g id="graph0" class="graph" transform="scale(1 1) rotate(0) translate(36 201.74)">
<title>%3</title>
<polygon fill="dimgray" stroke="transparent" points="-36,36 -36,-201.74 3519.5,-201.74 3519.5,36 -36,36"/>
<text text-anchor="middle" x="1741.75" y="-150.54" font-family="Helvetica,sans-Serif" font-size="14.00">Sweep&#39;s Plan &amp; Progress</text>
<!-- start -->
<g id="node1" class="node">
<title>start</title>
</g>
<!-- 00fa0653&#45;890e&#45;4bf4&#45;8383&#45;8778c1d96342 -->
<g id="node3" class="node">
<title>00fa0653&#45;890e&#45;4bf4&#45;8383&#45;8778c1d96342</title>
<ellipse fill="#0ee832" stroke="black" cx="252" cy="-99.87" rx="166.75" ry="26.74"/>
<text text-anchor="middle" x="252" y="-103.67" font-family="Helvetica,sans-Serif" font-size="14.00">✓ Modify</text>
<text text-anchor="middle" x="252" y="-88.67" font-family="Helvetica,sans-Serif" font-size="14.00">MLBPredictor/Model/Player.swift</text>
</g>
<!-- start&#45;&gt;00fa0653&#45;890e&#45;4bf4&#45;8383&#45;8778c1d96342 -->
<g id="edge14" class="edge">
<title>start&#45;&gt;00fa0653&#45;890e&#45;4bf4&#45;8383&#45;8778c1d96342</title>
<path fill="none" stroke="black" d="M33.63,-99.87C36.93,-99.87 52.95,-99.87 74.93,-99.87"/>
<polygon fill="black" stroke="black" points="75.06,-103.37 85.06,-99.87 75.06,-96.37 75.06,-103.37"/>
<text text-anchor="middle" x="59.31" y="-106.67" font-family="Helvetica,sans-Serif" font-size="14.00">Start</text>
</g>
<!-- end -->
<g id="node2" class="node">
<title>end</title>
</g>
<!-- c4bd3ff2&#45;a8f0&#45;49fb&#45;b0c0&#45;5f10100f49df -->
<g id="node4" class="node">
<title>c4bd3ff2&#45;a8f0&#45;49fb&#45;b0c0&#45;5f10100f49df</title>
<ellipse fill="#0ee832" stroke="black" cx="663" cy="-99.87" rx="170.33" ry="26.74"/>
<text text-anchor="middle" x="663" y="-103.67" font-family="Helvetica,sans-Serif" font-size="14.00">✓ Modify</text>
<text text-anchor="middle" x="663" y="-88.67" font-family="Helvetica,sans-Serif" font-size="14.00">MLBPredictor/Model/Pitcher.swift</text>
</g>
<!-- 00fa0653&#45;890e&#45;4bf4&#45;8383&#45;8778c1d96342&#45;&gt;c4bd3ff2&#45;a8f0&#45;49fb&#45;b0c0&#45;5f10100f49df -->
<g id="edge2" class="edge">
<title>00fa0653&#45;890e&#45;4bf4&#45;8383&#45;8778c1d96342&#45;&gt;c4bd3ff2&#45;a8f0&#45;49fb&#45;b0c0&#45;5f10100f49df</title>
<path fill="none" stroke="black" d="M418.97,-99.87C440.09,-99.87 461.21,-99.87 482.33,-99.87"/>
<polygon fill="black" stroke="black" points="482.37,-103.37 492.37,-99.87 482.37,-96.37 482.37,-103.37"/>
</g>
<!-- c627a436&#45;58e8&#45;44b2&#45;ab12&#45;1398d32182cc -->
<g id="node10" class="node">
<title>c627a436&#45;58e8&#45;44b2&#45;ab12&#45;1398d32182cc</title>
<polygon fill="#0ee832" stroke="black" points="428,-36 0,-36 0,0 428,0 428,-36"/>
<text text-anchor="middle" x="214" y="-14.3" font-family="Helvetica,sans-Serif" font-size="14.00">✓ Run GitHub Actions for `MLBPredictor/Model/Player.swift`</text>
</g>
<!-- 00fa0653&#45;890e&#45;4bf4&#45;8383&#45;8778c1d96342&#45;&gt;c627a436&#45;58e8&#45;44b2&#45;ab12&#45;1398d32182cc -->
<g id="edge1" class="edge">
<title>00fa0653&#45;890e&#45;4bf4&#45;8383&#45;8778c1d96342&#45;&gt;c627a436&#45;58e8&#45;44b2&#45;ab12&#45;1398d32182cc</title>
<path fill="none" stroke="black" stroke-dasharray="5,2" d="M239.56,-72.72C235.36,-63.9 230.68,-54.05 226.48,-45.23"/>
<polygon fill="black" stroke="black" points="229.61,-43.67 222.16,-36.15 223.29,-46.68 229.61,-43.67"/>
</g>
<!-- f32c3c4d&#45;8a18&#45;4a86&#45;8491&#45;3ba5efb6d3b1 -->
<g id="node5" class="node">
<title>f32c3c4d&#45;8a18&#45;4a86&#45;8491&#45;3ba5efb6d3b1</title>
<ellipse fill="#0ee832" stroke="black" cx="1112" cy="-99.87" rx="164.1" ry="26.74"/>
<text text-anchor="middle" x="1112" y="-103.67" font-family="Helvetica,sans-Serif" font-size="14.00">✓ Modify</text>
<text text-anchor="middle" x="1112" y="-88.67" font-family="Helvetica,sans-Serif" font-size="14.00">MLBPredictor/Model/Hitter.swift</text>
</g>
<!-- c4bd3ff2&#45;a8f0&#45;49fb&#45;b0c0&#45;5f10100f49df&#45;&gt;f32c3c4d&#45;8a18&#45;4a86&#45;8491&#45;3ba5efb6d3b1 -->
<g id="edge4" class="edge">
<title>c4bd3ff2&#45;a8f0&#45;49fb&#45;b0c0&#45;5f10100f49df&#45;&gt;f32c3c4d&#45;8a18&#45;4a86&#45;8491&#45;3ba5efb6d3b1</title>
<path fill="none" stroke="black" d="M833.57,-99.87C868.21,-99.87 902.86,-99.87 937.51,-99.87"/>
<polygon fill="black" stroke="black" points="937.77,-103.37 947.77,-99.87 937.77,-96.37 937.77,-103.37"/>
</g>
<!-- 7b30c9b9&#45;55d7&#45;457e&#45;9570&#45;a3066dadfd34 -->
<g id="node11" class="node">
<title>7b30c9b9&#45;55d7&#45;457e&#45;9570&#45;a3066dadfd34</title>
<polygon fill="#0ee832" stroke="black" points="880,-36 446,-36 446,0 880,0 880,-36"/>
<text text-anchor="middle" x="663" y="-14.3" font-family="Helvetica,sans-Serif" font-size="14.00">✓ Run GitHub Actions for `MLBPredictor/Model/Pitcher.swift`</text>
</g>
<!-- c4bd3ff2&#45;a8f0&#45;49fb&#45;b0c0&#45;5f10100f49df&#45;&gt;7b30c9b9&#45;55d7&#45;457e&#45;9570&#45;a3066dadfd34 -->
<g id="edge3" class="edge">
<title>c4bd3ff2&#45;a8f0&#45;49fb&#45;b0c0&#45;5f10100f49df&#45;&gt;7b30c9b9&#45;55d7&#45;457e&#45;9570&#45;a3066dadfd34</title>
<path fill="none" stroke="black" stroke-dasharray="5,2" d="M663,-72.72C663,-64.27 663,-54.89 663,-46.36"/>
<polygon fill="black" stroke="black" points="666.5,-46.15 663,-36.15 659.5,-46.15 666.5,-46.15"/>
</g>
<!-- 9fccfd8a&#45;fc8d&#45;4fb4&#45;b8f7&#45;79c68c44c82e -->
<g id="node6" class="node">
<title>9fccfd8a&#45;fc8d&#45;4fb4&#45;b8f7&#45;79c68c44c82e</title>
<ellipse fill="white" stroke="black" cx="1585" cy="-99.87" rx="205.12" ry="26.74"/>
<text text-anchor="middle" x="1585" y="-103.67" font-family="Helvetica,sans-Serif" font-size="14.00">▶ Modify</text>
<text text-anchor="middle" x="1585" y="-88.67" font-family="Helvetica,sans-Serif" font-size="14.00">MLBPredictor/Model/VideoAnalysis.swift</text>
</g>
<!-- f32c3c4d&#45;8a18&#45;4a86&#45;8491&#45;3ba5efb6d3b1&#45;&gt;9fccfd8a&#45;fc8d&#45;4fb4&#45;b8f7&#45;79c68c44c82e -->
<g id="edge6" class="edge">
<title>f32c3c4d&#45;8a18&#45;4a86&#45;8491&#45;3ba5efb6d3b1&#45;&gt;9fccfd8a&#45;fc8d&#45;4fb4&#45;b8f7&#45;79c68c44c82e</title>
<path fill="none" stroke="black" d="M1276.44,-99.87C1307.53,-99.87 1338.62,-99.87 1369.7,-99.87"/>
<polygon fill="black" stroke="black" points="1369.8,-103.37 1379.8,-99.87 1369.8,-96.37 1369.8,-103.37"/>
</g>
<!-- ba4ce9ab&#45;c572&#45;4535&#45;9bf0&#45;8a8885ceb703 -->
<g id="node12" class="node">
<title>ba4ce9ab&#45;c572&#45;4535&#45;9bf0&#45;8a8885ceb703</title>
<polygon fill="yellow" stroke="black" points="1325.5,-36 898.5,-36 898.5,0 1325.5,0 1325.5,-36"/>
<text text-anchor="middle" x="1112" y="-14.3" font-family="Helvetica,sans-Serif" font-size="14.00">⋯ Run GitHub Actions for `MLBPredictor/Model/Hitter.swift`</text>
</g>
<!-- f32c3c4d&#45;8a18&#45;4a86&#45;8491&#45;3ba5efb6d3b1&#45;&gt;ba4ce9ab&#45;c572&#45;4535&#45;9bf0&#45;8a8885ceb703 -->
<g id="edge5" class="edge">
<title>f32c3c4d&#45;8a18&#45;4a86&#45;8491&#45;3ba5efb6d3b1&#45;&gt;ba4ce9ab&#45;c572&#45;4535&#45;9bf0&#45;8a8885ceb703</title>
<path fill="none" stroke="black" stroke-dasharray="5,2" d="M1112,-72.72C1112,-64.27 1112,-54.89 1112,-46.36"/>
<polygon fill="black" stroke="black" points="1115.5,-46.15 1112,-36.15 1108.5,-46.15 1115.5,-46.15"/>
</g>
<!-- c85ac517&#45;290e&#45;453d&#45;a5dc&#45;df57e8f410fb -->
<g id="node7" class="node">
<title>c85ac517&#45;290e&#45;453d&#45;a5dc&#45;df57e8f410fb</title>
<ellipse fill="white" stroke="black" cx="2085" cy="-99.87" rx="205.12" ry="26.74"/>
<text text-anchor="middle" x="2085" y="-103.67" font-family="Helvetica,sans-Serif" font-size="14.00">▶ Modify</text>
<text text-anchor="middle" x="2085" y="-88.67" font-family="Helvetica,sans-Serif" font-size="14.00">MLBPredictor/Model/Biomechanics.swift</text>
</g>
<!-- 9fccfd8a&#45;fc8d&#45;4fb4&#45;b8f7&#45;79c68c44c82e&#45;&gt;c85ac517&#45;290e&#45;453d&#45;a5dc&#45;df57e8f410fb -->
<g id="edge8" class="edge">
<title>9fccfd8a&#45;fc8d&#45;4fb4&#45;b8f7&#45;79c68c44c82e&#45;&gt;c85ac517&#45;290e&#45;453d&#45;a5dc&#45;df57e8f410fb</title>
<path fill="none" stroke="black" d="M1790.08,-99.87C1816.64,-99.87 1843.2,-99.87 1869.76,-99.87"/>
<polygon fill="black" stroke="black" points="1869.94,-103.37 1879.94,-99.87 1869.94,-96.37 1869.94,-103.37"/>
</g>
<!-- 4b06c60d&#45;9d85&#45;4812&#45;99bb&#45;8b95afe6647c -->
<g id="node13" class="node">
<title>4b06c60d&#45;9d85&#45;4812&#45;99bb&#45;8b95afe6647c</title>
<polygon fill="white" stroke="black" points="1826,-36 1344,-36 1344,0 1826,0 1826,-36"/>
<text text-anchor="middle" x="1585" y="-14.3" font-family="Helvetica,sans-Serif" font-size="14.00">▶ Run GitHub Actions for `MLBPredictor/Model/VideoAnalysis.swift`</text>
</g>
<!-- 9fccfd8a&#45;fc8d&#45;4fb4&#45;b8f7&#45;79c68c44c82e&#45;&gt;4b06c60d&#45;9d85&#45;4812&#45;99bb&#45;8b95afe6647c -->
<g id="edge7" class="edge">
<title>9fccfd8a&#45;fc8d&#45;4fb4&#45;b8f7&#45;79c68c44c82e&#45;&gt;4b06c60d&#45;9d85&#45;4812&#45;99bb&#45;8b95afe6647c</title>
<path fill="none" stroke="black" stroke-dasharray="5,2" d="M1585,-72.72C1585,-64.27 1585,-54.89 1585,-46.36"/>
<polygon fill="black" stroke="black" points="1588.5,-46.15 1585,-36.15 1581.5,-46.15 1588.5,-46.15"/>
</g>
<!-- 51ec90cc&#45;ef62&#45;4eb0&#45;8185&#45;9ec9deef1ddf -->
<g id="node8" class="node">
<title>51ec90cc&#45;ef62&#45;4eb0&#45;8185&#45;9ec9deef1ddf</title>
<ellipse fill="white" stroke="black" cx="2615" cy="-99.87" rx="247.47" ry="26.74"/>
<text text-anchor="middle" x="2615" y="-103.67" font-family="Helvetica,sans-Serif" font-size="14.00">▶ Modify</text>
<text text-anchor="middle" x="2615" y="-88.67" font-family="Helvetica,sans-Serif" font-size="14.00">MLBPredictor/SupportingFiles/AppDelegate.swift</text>
</g>
<!-- c85ac517&#45;290e&#45;453d&#45;a5dc&#45;df57e8f410fb&#45;&gt;51ec90cc&#45;ef62&#45;4eb0&#45;8185&#45;9ec9deef1ddf -->
<g id="edge10" class="edge">
<title>c85ac517&#45;290e&#45;453d&#45;a5dc&#45;df57e8f410fb&#45;&gt;51ec90cc&#45;ef62&#45;4eb0&#45;8185&#45;9ec9deef1ddf</title>
<path fill="none" stroke="black" d="M2290.22,-99.87C2312.5,-99.87 2334.78,-99.87 2357.06,-99.87"/>
<polygon fill="black" stroke="black" points="2357.29,-103.37 2367.29,-99.87 2357.29,-96.37 2357.29,-103.37"/>
</g>
<!-- 1f0555d9&#45;bbb4&#45;40e0&#45;aea5&#45;d15c21004f0b -->
<g id="node14" class="node">
<title>1f0555d9&#45;bbb4&#45;40e0&#45;aea5&#45;d15c21004f0b</title>
<polygon fill="white" stroke="black" points="2326,-36 1844,-36 1844,0 2326,0 2326,-36"/>
<text text-anchor="middle" x="2085" y="-14.3" font-family="Helvetica,sans-Serif" font-size="14.00">▶ Run GitHub Actions for `MLBPredictor/Model/Biomechanics.swift`</text>
</g>
<!-- c85ac517&#45;290e&#45;453d&#45;a5dc&#45;df57e8f410fb&#45;&gt;1f0555d9&#45;bbb4&#45;40e0&#45;aea5&#45;d15c21004f0b -->
<g id="edge9" class="edge">
<title>c85ac517&#45;290e&#45;453d&#45;a5dc&#45;df57e8f410fb&#45;&gt;1f0555d9&#45;bbb4&#45;40e0&#45;aea5&#45;d15c21004f0b</title>
<path fill="none" stroke="black" stroke-dasharray="5,2" d="M2085,-72.72C2085,-64.27 2085,-54.89 2085,-46.36"/>
<polygon fill="black" stroke="black" points="2088.5,-46.15 2085,-36.15 2081.5,-46.15 2088.5,-46.15"/>
</g>
<!-- 41b5e623&#45;517f&#45;48a4&#45;a915&#45;1aae415a697d -->
<g id="node9" class="node">
<title>41b5e623&#45;517f&#45;48a4&#45;a915&#45;1aae415a697d</title>
<ellipse fill="white" stroke="black" cx="3168" cy="-99.87" rx="257.27" ry="26.74"/>
<text text-anchor="middle" x="3168" y="-103.67" font-family="Helvetica,sans-Serif" font-size="14.00">▶ Modify</text>
<text text-anchor="middle" x="3168" y="-88.67" font-family="Helvetica,sans-Serif" font-size="14.00">MLBPredictor/SupportingFiles/SceneDelegate.swift</text>
</g>
<!-- 51ec90cc&#45;ef62&#45;4eb0&#45;8185&#45;9ec9deef1ddf&#45;&gt;41b5e623&#45;517f&#45;48a4&#45;a915&#45;1aae415a697d -->
<g id="edge12" class="edge">
<title>51ec90cc&#45;ef62&#45;4eb0&#45;8185&#45;9ec9deef1ddf&#45;&gt;41b5e623&#45;517f&#45;48a4&#45;a915&#45;1aae415a697d</title>
<path fill="none" stroke="black" d="M2862.61,-99.87C2875.16,-99.87 2887.71,-99.87 2900.26,-99.87"/>
<polygon fill="black" stroke="black" points="2900.33,-103.37 2910.33,-99.87 2900.33,-96.37 2900.33,-103.37"/>
</g>
<!-- ab2ef686&#45;df89&#45;468e&#45;8691&#45;2ee78950cc92 -->
<g id="node15" class="node">
<title>ab2ef686&#45;df89&#45;468e&#45;8691&#45;2ee78950cc92</title>
<polygon fill="white" stroke="black" points="2885.5,-36 2344.5,-36 2344.5,0 2885.5,0 2885.5,-36"/>
<text text-anchor="middle" x="2615" y="-14.3" font-family="Helvetica,sans-Serif" font-size="14.00">▶ Run GitHub Actions for `MLBPredictor/SupportingFiles/AppDelegate.swift`</text>
</g>
<!-- 51ec90cc&#45;ef62&#45;4eb0&#45;8185&#45;9ec9deef1ddf&#45;&gt;ab2ef686&#45;df89&#45;468e&#45;8691&#45;2ee78950cc92 -->
<g id="edge11" class="edge">
<title>51ec90cc&#45;ef62&#45;4eb0&#45;8185&#45;9ec9deef1ddf&#45;&gt;ab2ef686&#45;df89&#45;468e&#45;8691&#45;2ee78950cc92</title>
<path fill="none" stroke="black" stroke-dasharray="5,2" d="M2615,-72.72C2615,-64.27 2615,-54.89 2615,-46.36"/>
<polygon fill="black" stroke="black" points="2618.5,-46.15 2615,-36.15 2611.5,-46.15 2618.5,-46.15"/>
</g>
<!-- 41b5e623&#45;517f&#45;48a4&#45;a915&#45;1aae415a697d&#45;&gt;end -->
<g id="edge15" class="edge">
<title>41b5e623&#45;517f&#45;48a4&#45;a915&#45;1aae415a697d&#45;&gt;end</title>
<path fill="none" stroke="black" d="M3425.59,-99.87C3445.83,-99.87 3462.3,-99.87 3472.33,-99.87"/>
<polygon fill="black" stroke="black" points="3472.39,-103.37 3482.39,-99.87 3472.39,-96.37 3472.39,-103.37"/>
<text text-anchor="middle" x="3453.94" y="-106.67" font-family="Helvetica,sans-Serif" font-size="14.00">Finish</text>
</g>
<!-- 27948917&#45;0c27&#45;4d46&#45;9edd&#45;d7aabab09a14 -->
<g id="node16" class="node">
<title>27948917&#45;0c27&#45;4d46&#45;9edd&#45;d7aabab09a14</title>
<polygon fill="white" stroke="black" points="3458.5,-36 2903.5,-36 2903.5,0 3458.5,0 3458.5,-36"/>
<text text-anchor="middle" x="3181" y="-14.3" font-family="Helvetica,sans-Serif" font-size="14.00">▶ Run GitHub Actions for `MLBPredictor/SupportingFiles/SceneDelegate.swift`</text>
</g>
<!-- 41b5e623&#45;517f&#45;48a4&#45;a915&#45;1aae415a697d&#45;&gt;27948917&#45;0c27&#45;4d46&#45;9edd&#45;d7aabab09a14 -->
<g id="edge13" class="edge">
<title>41b5e623&#45;517f&#45;48a4&#45;a915&#45;1aae415a697d&#45;&gt;27948917&#45;0c27&#45;4d46&#45;9edd&#45;d7aabab09a14</title>
<path fill="none" stroke="black" stroke-dasharray="5,2" d="M3172.26,-72.72C3173.65,-64.18 3175.19,-54.68 3176.59,-46.08"/>
<polygon fill="black" stroke="black" points="3180.06,-46.58 3178.21,-36.15 3173.15,-45.45 3180.06,-46.58"/>
</g>
</g>
</svg>
