<?xml version="1.0" encoding="UTF-8" standalone="no"?>
<!DOCTYPE svg PUBLIC "-//W3C//DTD SVG 1.1//EN"
 "http://www.w3.org/Graphics/SVG/1.1/DTD/svg11.dtd">
<!-- Generated by graphviz version 2.43.0 (0)
 -->
<!-- Title: %3 Pages: 1 -->
<svg width="3553pt" height="238pt"
 viewBox="0.00 0.00 3553.00 237.74" xmlns="http://www.w3.org/2000/svg" xmlns:xlink="http://www.w3.org/1999/xlink">
<g id="graph0" class="graph" transform="scale(1 1) rotate(0) translate(36 201.74)">
<title>%3</title>
<polygon fill="dimgray" stroke="transparent" points="-36,36 -36,-201.74 3517,-201.74 3517,36 -36,36"/>
<text text-anchor="middle" x="1740.5" y="-150.54" font-family="Helvetica,sans-Serif" font-size="14.00">Sweep&#39;s Plan &amp; Progress</text>
<!-- start -->
<g id="node1" class="node">
<title>start</title>
</g>
<!-- 00fa0653&#45;890e&#45;4bf4&#45;8383&#45;8778c1d96342 -->
<g id="node3" class="node">
<title>00fa0653&#45;890e&#45;4bf4&#45;8383&#45;8778c1d96342</title>
<ellipse fill="#0ee832" stroke="black" cx="253.5" cy="-99.87" rx="166.75" ry="26.74"/>
<text text-anchor="middle" x="253.5" y="-103.67" font-family="Helvetica,sans-Serif" font-size="14.00">✓ Modify</text>
<text text-anchor="middle" x="253.5" y="-88.67" font-family="Helvetica,sans-Serif" font-size="14.00">MLBPredictor/Model/Player.swift</text>
</g>
<!-- start&#45;&gt;00fa0653&#45;890e&#45;4bf4&#45;8383&#45;8778c1d96342 -->
<g id="edge14" class="edge">
<title>start&#45;&gt;00fa0653&#45;890e&#45;4bf4&#45;8383&#45;8778c1d96342</title>
<path fill="none" stroke="black" d="M35.13,-99.87C38.43,-99.87 54.45,-99.87 76.43,-99.87"/>
<polygon fill="black" stroke="black" points="76.56,-103.37 86.56,-99.87 76.56,-96.37 76.56,-103.37"/>
<text text-anchor="middle" x="60.81" y="-106.67" font-family="Helvetica,sans-Serif" font-size="14.00">Start</text>
</g>
<!-- end -->
<g id="node2" class="node">
<title>end</title>
</g>
<!-- c4bd3ff2&#45;a8f0&#45;49fb&#45;b0c0&#45;5f10100f49df -->
<g id="node4" class="node">
<title>c4bd3ff2&#45;a8f0&#45;49fb&#45;b0c0&#45;5f10100f49df</title>
<ellipse fill="white" stroke="black" cx="665.5" cy="-99.87" rx="170.33" ry="26.74"/>
<text text-anchor="middle" x="665.5" y="-103.67" font-family="Helvetica,sans-Serif" font-size="14.00">▶ Modify</text>
<text text-anchor="middle" x="665.5" y="-88.67" font-family="Helvetica,sans-Serif" font-size="14.00">MLBPredictor/Model/Pitcher.swift</text>
</g>
<!-- 00fa0653&#45;890e&#45;4bf4&#45;8383&#45;8778c1d96342&#45;&gt;c4bd3ff2&#45;a8f0&#45;49fb&#45;b0c0&#45;5f10100f49df -->
<g id="edge2" class="edge">
<title>00fa0653&#45;890e&#45;4bf4&#45;8383&#45;8778c1d96342&#45;&gt;c4bd3ff2&#45;a8f0&#45;49fb&#45;b0c0&#45;5f10100f49df</title>
<path fill="none" stroke="black" d="M420.47,-99.87C441.82,-99.87 463.16,-99.87 484.51,-99.87"/>
<polygon fill="black" stroke="black" points="484.65,-103.37 494.65,-99.87 484.65,-96.37 484.65,-103.37"/>
</g>
<!-- c627a436&#45;58e8&#45;44b2&#45;ab12&#45;1398d32182cc -->
<g id="node10" class="node">
<title>c627a436&#45;58e8&#45;44b2&#45;ab12&#45;1398d32182cc</title>
<polygon fill="yellow" stroke="black" points="431,-36 0,-36 0,0 431,0 431,-36"/>
<text text-anchor="middle" x="215.5" y="-14.3" font-family="Helvetica,sans-Serif" font-size="14.00">⋯ Run GitHub Actions for `MLBPredictor/Model/Player.swift`</text>
</g>
<!-- 00fa0653&#45;890e&#45;4bf4&#45;8383&#45;8778c1d96342&#45;&gt;c627a436&#45;58e8&#45;44b2&#45;ab12&#45;1398d32182cc -->
<g id="edge1" class="edge">
<title>00fa0653&#45;890e&#45;4bf4&#45;8383&#45;8778c1d96342&#45;&gt;c627a436&#45;58e8&#45;44b2&#45;ab12&#45;1398d32182cc</title>
<path fill="none" stroke="black" stroke-dasharray="5,2" d="M241.06,-72.72C236.86,-63.9 232.18,-54.05 227.98,-45.23"/>
<polygon fill="black" stroke="black" points="231.11,-43.67 223.66,-36.15 224.79,-46.68 231.11,-43.67"/>
</g>
<!-- f32c3c4d&#45;8a18&#45;4a86&#45;8491&#45;3ba5efb6d3b1 -->
<g id="node5" class="node">
<title>f32c3c4d&#45;8a18&#45;4a86&#45;8491&#45;3ba5efb6d3b1</title>
<ellipse fill="white" stroke="black" cx="1111.5" cy="-99.87" rx="164.1" ry="26.74"/>
<text text-anchor="middle" x="1111.5" y="-103.67" font-family="Helvetica,sans-Serif" font-size="14.00">▶ Modify</text>
<text text-anchor="middle" x="1111.5" y="-88.67" font-family="Helvetica,sans-Serif" font-size="14.00">MLBPredictor/Model/Hitter.swift</text>
</g>
<!-- c4bd3ff2&#45;a8f0&#45;49fb&#45;b0c0&#45;5f10100f49df&#45;&gt;f32c3c4d&#45;8a18&#45;4a86&#45;8491&#45;3ba5efb6d3b1 -->
<g id="edge4" class="edge">
<title>c4bd3ff2&#45;a8f0&#45;49fb&#45;b0c0&#45;5f10100f49df&#45;&gt;f32c3c4d&#45;8a18&#45;4a86&#45;8491&#45;3ba5efb6d3b1</title>
<path fill="none" stroke="black" d="M836.23,-99.87C869.77,-99.87 903.31,-99.87 936.85,-99.87"/>
<polygon fill="black" stroke="black" points="937.25,-103.37 947.25,-99.87 937.25,-96.37 937.25,-103.37"/>
</g>
<!-- 7b30c9b9&#45;55d7&#45;457e&#45;9570&#45;a3066dadfd34 -->
<g id="node11" class="node">
<title>7b30c9b9&#45;55d7&#45;457e&#45;9570&#45;a3066dadfd34</title>
<polygon fill="white" stroke="black" points="881.5,-36 449.5,-36 449.5,0 881.5,0 881.5,-36"/>
<text text-anchor="middle" x="665.5" y="-14.3" font-family="Helvetica,sans-Serif" font-size="14.00">▶ Run GitHub Actions for `MLBPredictor/Model/Pitcher.swift`</text>
</g>
<!-- c4bd3ff2&#45;a8f0&#45;49fb&#45;b0c0&#45;5f10100f49df&#45;&gt;7b30c9b9&#45;55d7&#45;457e&#45;9570&#45;a3066dadfd34 -->
<g id="edge3" class="edge">
<title>c4bd3ff2&#45;a8f0&#45;49fb&#45;b0c0&#45;5f10100f49df&#45;&gt;7b30c9b9&#45;55d7&#45;457e&#45;9570&#45;a3066dadfd34</title>
<path fill="none" stroke="black" stroke-dasharray="5,2" d="M665.5,-72.72C665.5,-64.27 665.5,-54.89 665.5,-46.36"/>
<polygon fill="black" stroke="black" points="669,-46.15 665.5,-36.15 662,-46.15 669,-46.15"/>
</g>
<!-- 9fccfd8a&#45;fc8d&#45;4fb4&#45;b8f7&#45;79c68c44c82e -->
<g id="node6" class="node">
<title>9fccfd8a&#45;fc8d&#45;4fb4&#45;b8f7&#45;79c68c44c82e</title>
<ellipse fill="white" stroke="black" cx="1582.5" cy="-99.87" rx="205.12" ry="26.74"/>
<text text-anchor="middle" x="1582.5" y="-103.67" font-family="Helvetica,sans-Serif" font-size="14.00">▶ Modify</text>
<text text-anchor="middle" x="1582.5" y="-88.67" font-family="Helvetica,sans-Serif" font-size="14.00">MLBPredictor/Model/VideoAnalysis.swift</text>
</g>
<!-- f32c3c4d&#45;8a18&#45;4a86&#45;8491&#45;3ba5efb6d3b1&#45;&gt;9fccfd8a&#45;fc8d&#45;4fb4&#45;b8f7&#45;79c68c44c82e -->
<g id="edge6" class="edge">
<title>f32c3c4d&#45;8a18&#45;4a86&#45;8491&#45;3ba5efb6d3b1&#45;&gt;9fccfd8a&#45;fc8d&#45;4fb4&#45;b8f7&#45;79c68c44c82e</title>
<path fill="none" stroke="black" d="M1275.71,-99.87C1306.12,-99.87 1336.54,-99.87 1366.96,-99.87"/>
<polygon fill="black" stroke="black" points="1367.27,-103.37 1377.27,-99.87 1367.27,-96.37 1367.27,-103.37"/>
</g>
<!-- ba4ce9ab&#45;c572&#45;4535&#45;9bf0&#45;8a8885ceb703 -->
<g id="node12" class="node">
<title>ba4ce9ab&#45;c572&#45;4535&#45;9bf0&#45;8a8885ceb703</title>
<polygon fill="white" stroke="black" points="1323,-36 900,-36 900,0 1323,0 1323,-36"/>
<text text-anchor="middle" x="1111.5" y="-14.3" font-family="Helvetica,sans-Serif" font-size="14.00">▶ Run GitHub Actions for `MLBPredictor/Model/Hitter.swift`</text>
</g>
<!-- f32c3c4d&#45;8a18&#45;4a86&#45;8491&#45;3ba5efb6d3b1&#45;&gt;ba4ce9ab&#45;c572&#45;4535&#45;9bf0&#45;8a8885ceb703 -->
<g id="edge5" class="edge">
<title>f32c3c4d&#45;8a18&#45;4a86&#45;8491&#45;3ba5efb6d3b1&#45;&gt;ba4ce9ab&#45;c572&#45;4535&#45;9bf0&#45;8a8885ceb703</title>
<path fill="none" stroke="black" stroke-dasharray="5,2" d="M1111.5,-72.72C1111.5,-64.27 1111.5,-54.89 1111.5,-46.36"/>
<polygon fill="black" stroke="black" points="1115,-46.15 1111.5,-36.15 1108,-46.15 1115,-46.15"/>
</g>
<!-- c85ac517&#45;290e&#45;453d&#45;a5dc&#45;df57e8f410fb -->
<g id="node7" class="node">
<title>c85ac517&#45;290e&#45;453d&#45;a5dc&#45;df57e8f410fb</title>
<ellipse fill="white" stroke="black" cx="2082.5" cy="-99.87" rx="205.12" ry="26.74"/>
<text text-anchor="middle" x="2082.5" y="-103.67" font-family="Helvetica,sans-Serif" font-size="14.00">▶ Modify</text>
<text text-anchor="middle" x="2082.5" y="-88.67" font-family="Helvetica,sans-Serif" font-size="14.00">MLBPredictor/Model/Biomechanics.swift</text>
</g>
<!-- 9fccfd8a&#45;fc8d&#45;4fb4&#45;b8f7&#45;79c68c44c82e&#45;&gt;c85ac517&#45;290e&#45;453d&#45;a5dc&#45;df57e8f410fb -->
<g id="edge8" class="edge">
<title>9fccfd8a&#45;fc8d&#45;4fb4&#45;b8f7&#45;79c68c44c82e&#45;&gt;c85ac517&#45;290e&#45;453d&#45;a5dc&#45;df57e8f410fb</title>
<path fill="none" stroke="black" d="M1787.58,-99.87C1814.14,-99.87 1840.7,-99.87 1867.26,-99.87"/>
<polygon fill="black" stroke="black" points="1867.44,-103.37 1877.44,-99.87 1867.44,-96.37 1867.44,-103.37"/>
</g>
<!-- 4b06c60d&#45;9d85&#45;4812&#45;99bb&#45;8b95afe6647c -->
<g id="node13" class="node">
<title>4b06c60d&#45;9d85&#45;4812&#45;99bb&#45;8b95afe6647c</title>
<polygon fill="white" stroke="black" points="1823.5,-36 1341.5,-36 1341.5,0 1823.5,0 1823.5,-36"/>
<text text-anchor="middle" x="1582.5" y="-14.3" font-family="Helvetica,sans-Serif" font-size="14.00">▶ Run GitHub Actions for `MLBPredictor/Model/VideoAnalysis.swift`</text>
</g>
<!-- 9fccfd8a&#45;fc8d&#45;4fb4&#45;b8f7&#45;79c68c44c82e&#45;&gt;4b06c60d&#45;9d85&#45;4812&#45;99bb&#45;8b95afe6647c -->
<g id="edge7" class="edge">
<title>9fccfd8a&#45;fc8d&#45;4fb4&#45;b8f7&#45;79c68c44c82e&#45;&gt;4b06c60d&#45;9d85&#45;4812&#45;99bb&#45;8b95afe6647c</title>
<path fill="none" stroke="black" stroke-dasharray="5,2" d="M1582.5,-72.72C1582.5,-64.27 1582.5,-54.89 1582.5,-46.36"/>
<polygon fill="black" stroke="black" points="1586,-46.15 1582.5,-36.15 1579,-46.15 1586,-46.15"/>
</g>
<!-- 51ec90cc&#45;ef62&#45;4eb0&#45;8185&#45;9ec9deef1ddf -->
<g id="node8" class="node">
<title>51ec90cc&#45;ef62&#45;4eb0&#45;8185&#45;9ec9deef1ddf</title>
<ellipse fill="white" stroke="black" cx="2612.5" cy="-99.87" rx="247.47" ry="26.74"/>
<text text-anchor="middle" x="2612.5" y="-103.67" font-family="Helvetica,sans-Serif" font-size="14.00">▶ Modify</text>
<text text-anchor="middle" x="2612.5" y="-88.67" font-family="Helvetica,sans-Serif" font-size="14.00">MLBPredictor/SupportingFiles/AppDelegate.swift</text>
</g>
<!-- c85ac517&#45;290e&#45;453d&#45;a5dc&#45;df57e8f410fb&#45;&gt;51ec90cc&#45;ef62&#45;4eb0&#45;8185&#45;9ec9deef1ddf -->
<g id="edge10" class="edge">
<title>c85ac517&#45;290e&#45;453d&#45;a5dc&#45;df57e8f410fb&#45;&gt;51ec90cc&#45;ef62&#45;4eb0&#45;8185&#45;9ec9deef1ddf</title>
<path fill="none" stroke="black" d="M2287.72,-99.87C2310,-99.87 2332.28,-99.87 2354.56,-99.87"/>
<polygon fill="black" stroke="black" points="2354.79,-103.37 2364.79,-99.87 2354.79,-96.37 2354.79,-103.37"/>
</g>
<!-- 1f0555d9&#45;bbb4&#45;40e0&#45;aea5&#45;d15c21004f0b -->
<g id="node14" class="node">
<title>1f0555d9&#45;bbb4&#45;40e0&#45;aea5&#45;d15c21004f0b</title>
<polygon fill="white" stroke="black" points="2323.5,-36 1841.5,-36 1841.5,0 2323.5,0 2323.5,-36"/>
<text text-anchor="middle" x="2082.5" y="-14.3" font-family="Helvetica,sans-Serif" font-size="14.00">▶ Run GitHub Actions for `MLBPredictor/Model/Biomechanics.swift`</text>
</g>
<!-- c85ac517&#45;290e&#45;453d&#45;a5dc&#45;df57e8f410fb&#45;&gt;1f0555d9&#45;bbb4&#45;40e0&#45;aea5&#45;d15c21004f0b -->
<g id="edge9" class="edge">
<title>c85ac517&#45;290e&#45;453d&#45;a5dc&#45;df57e8f410fb&#45;&gt;1f0555d9&#45;bbb4&#45;40e0&#45;aea5&#45;d15c21004f0b</title>
<path fill="none" stroke="black" stroke-dasharray="5,2" d="M2082.5,-72.72C2082.5,-64.27 2082.5,-54.89 2082.5,-46.36"/>
<polygon fill="black" stroke="black" points="2086,-46.15 2082.5,-36.15 2079,-46.15 2086,-46.15"/>
</g>
<!-- 41b5e623&#45;517f&#45;48a4&#45;a915&#45;1aae415a697d -->
<g id="node9" class="node">
<title>41b5e623&#45;517f&#45;48a4&#45;a915&#45;1aae415a697d</title>
<ellipse fill="white" stroke="black" cx="3165.5" cy="-99.87" rx="257.27" ry="26.74"/>
<text text-anchor="middle" x="3165.5" y="-103.67" font-family="Helvetica,sans-Serif" font-size="14.00">▶ Modify</text>
<text text-anchor="middle" x="3165.5" y="-88.67" font-family="Helvetica,sans-Serif" font-size="14.00">MLBPredictor/SupportingFiles/SceneDelegate.swift</text>
</g>
<!-- 51ec90cc&#45;ef62&#45;4eb0&#45;8185&#45;9ec9deef1ddf&#45;&gt;41b5e623&#45;517f&#45;48a4&#45;a915&#45;1aae415a697d -->
<g id="edge12" class="edge">
<title>51ec90cc&#45;ef62&#45;4eb0&#45;8185&#45;9ec9deef1ddf&#45;&gt;41b5e623&#45;517f&#45;48a4&#45;a915&#45;1aae415a697d</title>
<path fill="none" stroke="black" d="M2860.11,-99.87C2872.66,-99.87 2885.21,-99.87 2897.76,-99.87"/>
<polygon fill="black" stroke="black" points="2897.83,-103.37 2907.83,-99.87 2897.83,-96.37 2897.83,-103.37"/>
</g>
<!-- ab2ef686&#45;df89&#45;468e&#45;8691&#45;2ee78950cc92 -->
<g id="node15" class="node">
<title>ab2ef686&#45;df89&#45;468e&#45;8691&#45;2ee78950cc92</title>
<polygon fill="white" stroke="black" points="2883,-36 2342,-36 2342,0 2883,0 2883,-36"/>
<text text-anchor="middle" x="2612.5" y="-14.3" font-family="Helvetica,sans-Serif" font-size="14.00">▶ Run GitHub Actions for `MLBPredictor/SupportingFiles/AppDelegate.swift`</text>
</g>
<!-- 51ec90cc&#45;ef62&#45;4eb0&#45;8185&#45;9ec9deef1ddf&#45;&gt;ab2ef686&#45;df89&#45;468e&#45;8691&#45;2ee78950cc92 -->
<g id="edge11" class="edge">
<title>51ec90cc&#45;ef62&#45;4eb0&#45;8185&#45;9ec9deef1ddf&#45;&gt;ab2ef686&#45;df89&#45;468e&#45;8691&#45;2ee78950cc92</title>
<path fill="none" stroke="black" stroke-dasharray="5,2" d="M2612.5,-72.72C2612.5,-64.27 2612.5,-54.89 2612.5,-46.36"/>
<polygon fill="black" stroke="black" points="2616,-46.15 2612.5,-36.15 2609,-46.15 2616,-46.15"/>
</g>
<!-- 41b5e623&#45;517f&#45;48a4&#45;a915&#45;1aae415a697d&#45;&gt;end -->
<g id="edge15" class="edge">
<title>41b5e623&#45;517f&#45;48a4&#45;a915&#45;1aae415a697d&#45;&gt;end</title>
<path fill="none" stroke="black" d="M3423.09,-99.87C3443.33,-99.87 3459.8,-99.87 3469.83,-99.87"/>
<polygon fill="black" stroke="black" points="3469.89,-103.37 3479.89,-99.87 3469.89,-96.37 3469.89,-103.37"/>
<text text-anchor="middle" x="3451.44" y="-106.67" font-family="Helvetica,sans-Serif" font-size="14.00">Finish</text>
</g>
<!-- 27948917&#45;0c27&#45;4d46&#45;9edd&#45;d7aabab09a14 -->
<g id="node16" class="node">
<title>27948917&#45;0c27&#45;4d46&#45;9edd&#45;d7aabab09a14</title>
<polygon fill="white" stroke="black" points="3456,-36 2901,-36 2901,0 3456,0 3456,-36"/>
<text text-anchor="middle" x="3178.5" y="-14.3" font-family="Helvetica,sans-Serif" font-size="14.00">▶ Run GitHub Actions for `MLBPredictor/SupportingFiles/SceneDelegate.swift`</text>
</g>
<!-- 41b5e623&#45;517f&#45;48a4&#45;a915&#45;1aae415a697d&#45;&gt;27948917&#45;0c27&#45;4d46&#45;9edd&#45;d7aabab09a14 -->
<g id="edge13" class="edge">
<title>41b5e623&#45;517f&#45;48a4&#45;a915&#45;1aae415a697d&#45;&gt;27948917&#45;0c27&#45;4d46&#45;9edd&#45;d7aabab09a14</title>
<path fill="none" stroke="black" stroke-dasharray="5,2" d="M3169.76,-72.72C3171.15,-64.18 3172.69,-54.68 3174.09,-46.08"/>
<polygon fill="black" stroke="black" points="3177.56,-46.58 3175.71,-36.15 3170.65,-45.45 3177.56,-46.58"/>
</g>
</g>
</svg>
